<mxfile host="app.diagrams.net" modified="2023-10-04T20:32:16.475Z" agent="Mozilla/5.0 (Windows NT 10.0; Win64; x64) AppleWebKit/537.36 (KHTML, like Gecko) Chrome/117.0.0.0 Safari/537.36" etag="Av0CBgdVy1njjgfog4Rz" version="22.0.2" type="device">
  <diagram name="Page-1" id="x983-a6LYJWRfrsBBQNd">
    <mxGraphModel dx="1050" dy="534" grid="1" gridSize="10" guides="1" tooltips="1" connect="1" arrows="1" fold="1" page="1" pageScale="1" pageWidth="850" pageHeight="1100" background="#ffffff" math="0" shadow="0">
      <root>
        <mxCell id="0" />
        <mxCell id="1" parent="0" />
        <mxCell id="vr31iz9ngFOROh8ywndM-1" value="" style="rounded=0;html=1;jettySize=auto;orthogonalLoop=1;fontSize=11;endArrow=block;endFill=0;endSize=8;strokeWidth=1;shadow=0;labelBackgroundColor=none;edgeStyle=orthogonalEdgeStyle;" edge="1" parent="1" source="vr31iz9ngFOROh8ywndM-2" target="vr31iz9ngFOROh8ywndM-4">
          <mxGeometry relative="1" as="geometry" />
        </mxCell>
        <mxCell id="vr31iz9ngFOROh8ywndM-2" value="Load L&lt;br&gt;Load R" style="rounded=1;whiteSpace=wrap;html=1;fontSize=12;glass=0;strokeWidth=1;shadow=0;" vertex="1" parent="1">
          <mxGeometry x="280" y="60" width="160" height="70" as="geometry" />
        </mxCell>
        <mxCell id="vr31iz9ngFOROh8ywndM-3" value="1" style="edgeStyle=orthogonalEdgeStyle;rounded=0;html=1;jettySize=auto;orthogonalLoop=1;fontSize=11;endArrow=block;endFill=0;endSize=8;strokeWidth=1;shadow=0;labelBackgroundColor=none;entryX=1;entryY=0.5;entryDx=0;entryDy=0;exitX=1;exitY=0.5;exitDx=0;exitDy=0;" edge="1" parent="1" source="vr31iz9ngFOROh8ywndM-4" target="vr31iz9ngFOROh8ywndM-2">
          <mxGeometry x="-0.7209" y="10" relative="1" as="geometry">
            <mxPoint as="offset" />
            <mxPoint x="430" y="220" as="sourcePoint" />
            <mxPoint x="460" y="95" as="targetPoint" />
            <Array as="points">
              <mxPoint x="470" y="220" />
              <mxPoint x="470" y="95" />
            </Array>
          </mxGeometry>
        </mxCell>
        <mxCell id="vr31iz9ngFOROh8ywndM-4" value="Global Reset" style="rhombus;whiteSpace=wrap;html=1;shadow=0;fontFamily=Helvetica;fontSize=12;align=center;strokeWidth=1;spacing=6;spacingTop=-4;" vertex="1" parent="1">
          <mxGeometry x="310" y="180" width="100" height="80" as="geometry" />
        </mxCell>
        <mxCell id="vr31iz9ngFOROh8ywndM-5" value="0" style="rounded=0;html=1;jettySize=auto;orthogonalLoop=1;fontSize=11;endArrow=classic;endFill=1;endSize=6;strokeWidth=1;shadow=0;labelBackgroundColor=none;edgeStyle=orthogonalEdgeStyle;entryX=0.5;entryY=0;entryDx=0;entryDy=0;" edge="1" parent="1" source="vr31iz9ngFOROh8ywndM-7" target="vr31iz9ngFOROh8ywndM-14">
          <mxGeometry x="-0.6" y="10" relative="1" as="geometry">
            <mxPoint as="offset" />
            <mxPoint x="360" y="420" as="targetPoint" />
          </mxGeometry>
        </mxCell>
        <mxCell id="vr31iz9ngFOROh8ywndM-6" value="1" style="edgeStyle=orthogonalEdgeStyle;rounded=0;html=1;jettySize=auto;orthogonalLoop=1;fontSize=11;endArrow=classic;endFill=1;endSize=6;strokeWidth=1;shadow=0;labelBackgroundColor=none;" edge="1" parent="1" source="vr31iz9ngFOROh8ywndM-7" target="vr31iz9ngFOROh8ywndM-8">
          <mxGeometry x="-0.7778" y="10" relative="1" as="geometry">
            <mxPoint as="offset" />
          </mxGeometry>
        </mxCell>
        <mxCell id="vr31iz9ngFOROh8ywndM-7" value="Left&lt;br&gt;AND&lt;br&gt;Right" style="rhombus;whiteSpace=wrap;html=1;shadow=0;fontFamily=Helvetica;fontSize=12;align=center;strokeWidth=1;spacing=6;spacingTop=-4;" vertex="1" parent="1">
          <mxGeometry x="320" y="290" width="80" height="80" as="geometry" />
        </mxCell>
        <mxCell id="vr31iz9ngFOROh8ywndM-8" value="Shift L, Shift R, Select 1, Select 0" style="rounded=1;whiteSpace=wrap;html=1;fontSize=12;glass=0;strokeWidth=1;shadow=0;align=left;" vertex="1" parent="1">
          <mxGeometry x="500" y="305" width="150" height="50" as="geometry" />
        </mxCell>
        <mxCell id="vr31iz9ngFOROh8ywndM-9" value="0" style="edgeStyle=orthogonalEdgeStyle;rounded=0;html=1;jettySize=auto;orthogonalLoop=1;fontSize=11;endArrow=classic;endFill=1;endSize=6;strokeWidth=1;shadow=0;labelBackgroundColor=none;entryX=0.5;entryY=0;entryDx=0;entryDy=0;exitX=0.5;exitY=1;exitDx=0;exitDy=0;" edge="1" parent="1" source="vr31iz9ngFOROh8ywndM-4" target="vr31iz9ngFOROh8ywndM-7">
          <mxGeometry x="-0.3333" y="10" relative="1" as="geometry">
            <mxPoint as="offset" />
            <mxPoint x="150" y="275" as="sourcePoint" />
            <mxPoint x="180" y="150" as="targetPoint" />
            <Array as="points">
              <mxPoint x="360" y="260" />
              <mxPoint x="360" y="390" />
            </Array>
          </mxGeometry>
        </mxCell>
        <mxCell id="vr31iz9ngFOROh8ywndM-10" value="" style="edgeStyle=orthogonalEdgeStyle;rounded=0;orthogonalLoop=1;jettySize=auto;html=1;" edge="1" parent="1" source="vr31iz9ngFOROh8ywndM-14" target="vr31iz9ngFOROh8ywndM-17">
          <mxGeometry relative="1" as="geometry" />
        </mxCell>
        <mxCell id="vr31iz9ngFOROh8ywndM-11" value="0" style="edgeLabel;html=1;align=center;verticalAlign=middle;resizable=0;points=[];" vertex="1" connectable="0" parent="vr31iz9ngFOROh8ywndM-10">
          <mxGeometry x="-0.54" y="-1" relative="1" as="geometry">
            <mxPoint x="11" as="offset" />
          </mxGeometry>
        </mxCell>
        <mxCell id="vr31iz9ngFOROh8ywndM-12" value="" style="edgeStyle=orthogonalEdgeStyle;rounded=0;orthogonalLoop=1;jettySize=auto;html=1;" edge="1" parent="1" source="vr31iz9ngFOROh8ywndM-14" target="vr31iz9ngFOROh8ywndM-18">
          <mxGeometry relative="1" as="geometry" />
        </mxCell>
        <mxCell id="vr31iz9ngFOROh8ywndM-13" value="1" style="edgeLabel;html=1;align=center;verticalAlign=middle;resizable=0;points=[];rotation=0;" vertex="1" connectable="0" parent="vr31iz9ngFOROh8ywndM-12">
          <mxGeometry x="0.196" y="1" relative="1" as="geometry">
            <mxPoint x="-46" y="-9" as="offset" />
          </mxGeometry>
        </mxCell>
        <mxCell id="vr31iz9ngFOROh8ywndM-14" value="Left" style="rhombus;whiteSpace=wrap;html=1;" vertex="1" parent="1">
          <mxGeometry x="320" y="420" width="80" height="80" as="geometry" />
        </mxCell>
        <mxCell id="vr31iz9ngFOROh8ywndM-15" value="" style="edgeStyle=orthogonalEdgeStyle;rounded=0;orthogonalLoop=1;jettySize=auto;html=1;entryX=0;entryY=0.5;entryDx=0;entryDy=0;" edge="1" parent="1" source="vr31iz9ngFOROh8ywndM-17" target="vr31iz9ngFOROh8ywndM-21">
          <mxGeometry relative="1" as="geometry">
            <mxPoint x="510" y="600" as="targetPoint" />
          </mxGeometry>
        </mxCell>
        <mxCell id="vr31iz9ngFOROh8ywndM-16" value="1" style="edgeLabel;html=1;align=center;verticalAlign=middle;resizable=0;points=[];" vertex="1" connectable="0" parent="vr31iz9ngFOROh8ywndM-15">
          <mxGeometry x="-0.544" y="1" relative="1" as="geometry">
            <mxPoint x="-9" y="-9" as="offset" />
          </mxGeometry>
        </mxCell>
        <mxCell id="vr31iz9ngFOROh8ywndM-17" value="Right" style="rhombus;whiteSpace=wrap;html=1;" vertex="1" parent="1">
          <mxGeometry x="320" y="560" width="80" height="80" as="geometry" />
        </mxCell>
        <mxCell id="vr31iz9ngFOROh8ywndM-18" value="Shift L, Select 0" style="rounded=1;whiteSpace=wrap;html=1;align=left;" vertex="1" parent="1">
          <mxGeometry x="500" y="435" width="110" height="50" as="geometry" />
        </mxCell>
        <mxCell id="vr31iz9ngFOROh8ywndM-19" value="" style="edgeStyle=orthogonalEdgeStyle;rounded=0;orthogonalLoop=1;jettySize=auto;html=1;exitX=0.5;exitY=1;exitDx=0;exitDy=0;entryX=0;entryY=0.5;entryDx=0;entryDy=0;" edge="1" parent="1" source="vr31iz9ngFOROh8ywndM-17" target="vr31iz9ngFOROh8ywndM-4">
          <mxGeometry relative="1" as="geometry">
            <mxPoint x="360" y="690" as="sourcePoint" />
            <mxPoint x="240" y="200" as="targetPoint" />
            <Array as="points">
              <mxPoint x="360" y="740" />
              <mxPoint x="240" y="740" />
              <mxPoint x="240" y="220" />
            </Array>
          </mxGeometry>
        </mxCell>
        <mxCell id="vr31iz9ngFOROh8ywndM-20" value="0" style="edgeLabel;html=1;align=center;verticalAlign=middle;resizable=0;points=[];" vertex="1" connectable="0" parent="vr31iz9ngFOROh8ywndM-19">
          <mxGeometry x="-0.9511" relative="1" as="geometry">
            <mxPoint x="10" y="-10" as="offset" />
          </mxGeometry>
        </mxCell>
        <mxCell id="vr31iz9ngFOROh8ywndM-21" value="Shift R, Select 1" style="rounded=1;whiteSpace=wrap;html=1;fontSize=12;glass=0;strokeWidth=1;shadow=0;align=left;" vertex="1" parent="1">
          <mxGeometry x="500" y="575" width="110" height="50" as="geometry" />
        </mxCell>
        <mxCell id="vr31iz9ngFOROh8ywndM-22" value="" style="endArrow=none;html=1;rounded=0;exitX=1;exitY=0.5;exitDx=0;exitDy=0;endFill=0;" edge="1" parent="1" source="vr31iz9ngFOROh8ywndM-8">
          <mxGeometry width="50" height="50" relative="1" as="geometry">
            <mxPoint x="450" y="420" as="sourcePoint" />
            <mxPoint x="360" y="740" as="targetPoint" />
            <Array as="points">
              <mxPoint x="720" y="330" />
              <mxPoint x="720" y="480" />
              <mxPoint x="720" y="740" />
            </Array>
          </mxGeometry>
        </mxCell>
        <mxCell id="vr31iz9ngFOROh8ywndM-23" value="" style="endArrow=none;html=1;rounded=0;exitX=1;exitY=0.5;exitDx=0;exitDy=0;" edge="1" parent="1" source="vr31iz9ngFOROh8ywndM-18">
          <mxGeometry width="50" height="50" relative="1" as="geometry">
            <mxPoint x="620" y="470" as="sourcePoint" />
            <mxPoint x="720" y="460" as="targetPoint" />
          </mxGeometry>
        </mxCell>
        <mxCell id="vr31iz9ngFOROh8ywndM-24" value="" style="endArrow=none;html=1;rounded=0;exitX=1;exitY=0.5;exitDx=0;exitDy=0;" edge="1" parent="1" source="vr31iz9ngFOROh8ywndM-21">
          <mxGeometry width="50" height="50" relative="1" as="geometry">
            <mxPoint x="610" y="550" as="sourcePoint" />
            <mxPoint x="720" y="600" as="targetPoint" />
          </mxGeometry>
        </mxCell>
        <mxCell id="vr31iz9ngFOROh8ywndM-25" value="S0" style="text;html=1;strokeColor=none;fillColor=none;align=center;verticalAlign=middle;whiteSpace=wrap;rounded=0;" vertex="1" parent="1">
          <mxGeometry x="330" y="20" width="60" height="30" as="geometry" />
        </mxCell>
        <mxCell id="vr31iz9ngFOROh8ywndM-26" value="S1" style="text;html=1;align=center;verticalAlign=middle;resizable=0;points=[];autosize=1;strokeColor=none;fillColor=none;" vertex="1" parent="1">
          <mxGeometry x="530" y="275" width="40" height="30" as="geometry" />
        </mxCell>
        <mxCell id="vr31iz9ngFOROh8ywndM-27" value="S2" style="text;html=1;align=center;verticalAlign=middle;resizable=0;points=[];autosize=1;strokeColor=none;fillColor=none;" vertex="1" parent="1">
          <mxGeometry x="530" y="405" width="40" height="30" as="geometry" />
        </mxCell>
        <mxCell id="vr31iz9ngFOROh8ywndM-28" value="S3" style="text;html=1;align=center;verticalAlign=middle;resizable=0;points=[];autosize=1;strokeColor=none;fillColor=none;" vertex="1" parent="1">
          <mxGeometry x="530" y="545" width="40" height="30" as="geometry" />
        </mxCell>
      </root>
    </mxGraphModel>
  </diagram>
</mxfile>
